<svg xmlns="http://www.w3.org/2000/svg" width="124.113" height="48" fill="none"><defs><clipPath id="a"><rect width="123.113" height="47" fill="#fff" fill-opacity="0" rx="0" transform="translate(.5 .5)"/></clipPath></defs><g style="mix-blend-mode:luminosity"><rect width="123.113" height="47" fill="none" rx="0" transform="translate(.5 .5)"/><g fill-rule="evenodd" clip-path="url(#a)"><path fill="#F90" d="M71.29 34.52c2.33-.24 7.43-.78 8.34.26.92 1.04-1.02 5.33-1.88 7.25h-.01c-.26.58.3.82.9.38 3.85-2.86 4.84-8.84 4.06-9.7-.79-.86-7.52-1.6-11.63.96-.63.39-.52.93.18.86l.04-.01ZM50.1 45c8.96 0 19.37-2.51 26.55-7.2 1.18-.78.17-1.94-1.05-1.49-8.04 3.03-16.79 4.49-24.75 4.49-11.79 0-23.21-2.86-32.44-7.63-.81-.42-1.41.32-.74.86C26.22 40.88 37.53 45 50.1 45Z"/><path fill="#000" d="M14.22 31.16c.28.13.65.12.9-.08l.01.01c.76-.6 2.15-1.68 2.93-2.25.31-.23.26-.6.01-.91-.7-.85-1.44-1.55-1.44-3.14v-5.82c.02-2.02.03-3.87-1.68-5.29-1.47-1.25-3.9-1.68-5.76-1.68-3.64 0-7.7 1.2-8.55 5.18-.09.43.25.65.57.71l3.71.35c.34-.01.59-.31.66-.62.32-1.37 1.62-2.03 3.07-2.03.79 0 1.68.26 2.15.88.48.63.47 1.46.46 2.2v.69c-2.21.23-5.11.37-7.19 1.18C1.68 21.46 0 23.33 0 26.08c0 3.52 2.5 5.28 5.72 5.28 2.72 0 4.2-.57 6.3-2.46.7.89.93 1.32 2.2 2.26Zm51.03-.08c-.25.2-.62.21-.9.08-1.27-.94-1.5-1.37-2.2-2.26-2.1 1.89-3.58 2.46-6.3 2.46-3.22 0-5.72-1.76-5.72-5.28 0-2.75 1.67-4.62 4.07-5.54 2.08-.81 4.98-.95 7.19-1.18v-.43c0-.09 0-.17.01-.25 0-.75.01-1.58-.48-2.21-.46-.62-1.35-.88-2.14-.88-1.46 0-2.75.66-3.07 2.03-.07.31-.32.61-.67.62l-3.7-.35c-.32-.06-.67-.28-.57-.71.85-3.98 4.91-5.18 8.55-5.18 1.86 0 4.29.43 5.76 1.68 1.71 1.42 1.7 3.27 1.68 5.29v5.82c0 1.59.74 2.29 1.44 3.14.24.31.3.68-.01.91-.78.57-2.17 1.65-2.94 2.25v-.01Zm-43.51.04h3.82c.41 0 .74-.28.74-.63V21.06c0-1.99-.01-4.58 2.64-4.58 2.44 0 2.4 2.3 2.36 4.18v9.83c0 .34.3.61.69.63h3.82c.41 0 .74-.28.74-.63V21.04c-.01-.98-.01-2.29.35-3.1.39-.87 1.36-1.42 2.29-1.42 1.1 0 1.96.33 2.24 1.5.15.56.13 1.85.12 2.72 0 .21-.01.39-.01.54v9.21c0 .34.31.61.69.63h3.82c.41 0 .74-.28.74-.63V19.52c0-.27.01-.54.01-.82.03-1.64.06-3.38-.97-4.64-1.07-1.31-2.83-1.9-4.43-1.9-2.25 0-4.35 1.03-5.28 3.22-1.07-2.19-2.57-3.22-4.96-3.22-2.36 0-4.11 1.03-5.04 3.22h-.07v-2.27c-.02-.31-.32-.57-.69-.58h-3.57c-.41 0-.73.28-.73.62v17.4c.02.31.31.55.68.57Zm74.5-18.96c5.67 0 8.75 4.32 8.75 9.81 0 5.31-3.4 9.52-8.75 9.52-5.57 0-8.61-4.32-8.61-9.7 0-5.42 3.08-9.63 8.61-9.63Zm12.29 18.96h3.81c.41 0 .75-.28.75-.63v-9.36c0-1.17.07-2.23.61-3.3.42-.83 1.28-1.39 2.21-1.39 2.44 0 2.41 2.37 2.39 4.23v9.91c.04.29.33.52.68.54h3.83c.38 0 .7-.24.74-.54V19.63c0-1.69 0-4.03-1-5.42-1.08-1.5-2.75-2.05-4.46-2.05-2.64 0-4.15 1.14-5.22 3.52h-.07v-2.66c-.07-.28-.35-.48-.68-.49h-3.54c-.39 0-.71.25-.74.57l.01 17.39c0 .34.3.61.68.63ZM71.41 15.6v-2.49c0-.38.33-.63.71-.63h12.57c.4 0 .73.26.73.63v2.13c-.01.36-.35.83-.95 1.56l-6.51 8.25c2.42-.06 4.97.26 7.17 1.36.49.25.63.61.66.97v2.65c0 .36-.45.79-.92.57-3.87-1.8-9-1.99-13.28.02-.43.21-.89-.21-.89-.57v-2.53c0-.4 0-1.09.46-1.71l7.55-9.59h-6.57c-.4 0-.73-.25-.73-.62Zm24.86.11c-2.82 0-2.99 3.41-2.99 5.53v.08c0 2.15-.01 6.58 2.96 6.58 2.96 0 3.1-3.66 3.1-5.89 0-1.47-.07-3.22-.57-4.61-.43-1.22-1.28-1.69-2.5-1.69ZM11.26 23V22.08c-2.76 0-5.68.53-5.68 3.41 0 1.47.85 2.46 2.32 2.46 1.08 0 2.04-.59 2.65-1.54.72-1.12.71-2.17.71-3.41Zm50.13-.18V23c.01 1.24.01 2.29-.71 3.41-.61.95-1.58 1.54-2.65 1.54-1.47 0-2.33-.99-2.33-2.46 0-2.88 2.92-3.41 5.69-3.41v.74Z"/></g></g></svg>