<svg xmlns="http://www.w3.org/2000/svg" width="20.326" height="17.701" fill="none">
    <path fill="#191A23" d="m2.26 15.87-.01.03c-.73.42-1.63.18-2.05-.55-.42-.72-.18-1.63.55-2.05l.03.01 1.48 2.56ZM16.98 5.66 6.84 2.95a1.489 1.489 0 0 1-1.06-1.84C6 .3 6.81-.17 7.62.05l11.59 3.1c.81.22 1.28 1.03 1.06 1.84l-3.11 11.59c-.22.81-1.02 1.28-1.83 1.06a1.48 1.48 0 0 1-1.07-1.83l2.72-10.15Z"/>
    <path fill="#B9FF66" fill-rule="evenodd" d="M14.93 5.11 6.84 2.95a1.489 1.489 0 0 1-1.06-1.84C6 .3 6.81-.17 7.62.05l11.59 3.1c.81.22 1.28 1.03 1.06 1.84l-3.11 11.59c-.22.81-1.02 1.28-1.83 1.06a1.48 1.48 0 0 1-1.07-1.83l2.17-8.1L2.25 15.9c-.73.42-1.63.18-2.05-.55-.42-.72-.18-1.63.55-2.05l14.18-8.19Z"/>
</svg>