<svg xmlns="http://www.w3.org/2000/svg" width="494" height="394.269" fill="none"><ellipse cx="169" cy="198.5" stroke="#000" rx="168.5" ry="35"/><ellipse cx="169" cy="223.5" stroke="#000" rx="168.5" ry="35"/><ellipse cx="169" cy="248.5" stroke="#000" rx="168.5" ry="35"/><path fill="#000" fill-rule="evenodd" d="m228.16 66.53-49.09-46.58 29.13 61.08-67.09-8.83 59.47 32.3-59.47 32.29 67.09-8.83-29.13 61.08 49.09-46.58L240.5 209l12.33-66.54 49.09 46.58-29.13-61.08 67.09 8.83-59.47-32.29 59.47-32.3-67.09 8.83 29.13-61.08-49.09 46.58L240.5 0l-12.34 66.53ZM240.5 5.48l-11.69 63.05-46.51-44.14 27.6 57.88-63.57-8.37 56.35 30.6-56.35 30.59 63.57-8.36-27.6 57.87 46.51-44.14 11.69 63.05 11.68-63.05 46.51 44.14-27.6-57.87 63.57 8.36-56.34-30.59 56.34-30.6-63.57 8.37 27.6-57.88-46.51 44.14L240.5 5.48Z"/><path fill="#D9D9D9" fill-rule="evenodd" d="m277 177-17.79 45.06-46.32-14.19 24.13 42-39.97 27.37 47.89 7.32-3.52 48.31L277 300l35.57 32.87-3.52-48.31 47.89-7.32-39.97-27.37 24.13-42-46.32 14.19L277 177Z"/><path fill="#B9FF66" d="m112.19 306.1 22.94-42.1 23.12 42.1 42.02 23.03-42.02 23.03-23.12 42.1-22.94-42.1L70 329.13l42.19-23.03Z"/><circle cx="152.5" cy="186.5" r="62.5" fill="#000"/><circle cx="152.5" cy="186.5" r="62" stroke="#000"/><ellipse cx="132" cy="173" fill="#FFF" rx="10" ry="20"/><ellipse cx="173" cy="173" fill="#FFF" rx="10" ry="20"/></svg>