<svg xmlns="http://www.w3.org/2000/svg" width="691.633" height="648.25" fill="none"><mask id="a" width="649.859" height="648" x="41.711" y=".125" mask-type="alpha" maskUnits="userSpaceOnUse"><path fill="#000" fill-rule="evenodd" d="m387.91 155.02.15-154.9-1.99-.12-19.43 153.71L347.2 0l-1.99.12v154.93L306.64 4.97l-1.96.38 19.58 153.68L267.18 14.9l-1.9.62 38.57 150.22-74.7-135.96-1.81.85 57.24 144.14-91.25-125.48-1.68 1.07 74.86 135.97-106.3-113.05-1.53 1.27 91.24 125.32-119.48-98.77-1.37 1.46 106.28 112.88-131.03-82.99-1.17 1.61 119.64 98.78-140.44-66-.96 1.75 131.02 82.99-147.57-47.95-.74 1.86 140.44 66-152.43-29.13-.5 1.93 147.57 47.95-154.86-9.87-.25 1.98 152.43 28.98-154.86 9.71v2l154.86 9.71-152.43 28.98.25 1.98L199.18 356 51.61 403.79l.5 1.93 152.46-28.98L64.1 442.75l.74 1.86 147.57-47.95-131.02 82.99.96 1.75 140.44-66-119.64 98.78 1.17 1.61 131.03-83.15-106.28 113.04 1.37 1.46 119.48-98.92-91.24 125.47 1.53 1.27L266.5 461.92l-74.85 135.8 1.68 1.07 91.25-125.48-57.24 144.14 1.81.85 74.7-135.81-38.57 150.07 1.9.62 57.08-144.13-19.58 153.84 1.96.38 38.57-150.23v155.08l1.99.13 19.44-153.87 19.43 153.87 1.99-.13-.15-155.05 38.56 150.2 1.96-.38L409 489.02l57.09 144.16 1.9-.62-38.57-150.07 74.71 135.81 1.8-.85-57.24-144.14 91.25 125.48 1.69-1.07-74.84-135.78L572.9 574.96l1.54-1.27-91.11-125.49 119.5 98.94 1.37-1.46-106.28-113.04 131.03 83.15 1.17-1.61-119.64-98.78 140.44 66 .96-1.75-131.02-82.99 147.57 47.95.74-1.86-140.46-66.01 152.46 28.98.49-1.93L534.09 356l154.86 9.71.25-1.98-152.43-28.98 154.86-9.71v-2l-154.86-9.71 152.43-28.98-.25-1.98-154.86 9.87 147.57-47.95-.5-1.93-152.42 29.13 140.43-66-.74-1.86-147.57 47.95 131.02-82.99-.96-1.75-140.44 66 119.64-98.78-1.17-1.61-131.03 82.99L604.2 102.56l-1.37-1.46-119.5 98.79 91.11-125.34-1.54-1.27-106.12 113.03 74.85-135.95-1.69-1.07-91.25 125.48 57.24-144.14-1.8-.85-74.71 135.96 38.57-150.22-1.9-.62L409 159.06 428.43 5.35l-1.96-.38-38.56 150.05Zm0 4.03-1.01 3.91.01-4.04.15-150.77V.12l-1 7.97-18.92 149.61-.5 3.98-.51-3.98L347.21 8.03l-1-7.91v162.84l-1-3.89L307.67 13l-2-7.78 1.02 7.97 19.06 149.59.51 4.01-1.49-3.76-55.58-140.35-2.94-7.41 1.99 7.72 37.55 146.28 1 3.9-1.94-3.53-72.7-132.31-3.88-7.07 2.97 7.49 55.71 140.28 1.49 3.75-2.37-3.26-88.85-122.18-4.7-6.46 3.86 7 72.88 132.38 1.94 3.52-2.76-2.93L164.97 79.79l-5.48-5.83 4.71 6.47 88.83 122.01 2.37 3.26-3.11-2.57L136 106.99l-6.2-5.12 111.72 118.66-3.41-2.15-127.58-80.81-6.74-4.28 6.16 5.09 116.49 96.18 3.11 2.56-3.65-1.71-143.98-67.67 6.76 4.28 127.56 80.8 3.41 2.16-3.83-1.24-143.68-46.68-7.61-2.48 7.25 3.41 136.72 64.26 3.65 1.71-3.96-.76-148.41-28.36-7.86-1.5 7.61 2.47 143.68 46.68 3.83 1.25-4.02-.26-150.71-9.6-8.05-.51 7.92 1.51 148.35 28.2 3.96.75-4.03.26-150.76 9.45-7.99.5 7.99.5L200.46 334l4.03.25-3.96.75-148.41 28.22-7.86 1.49 7.99-.5 150.77-9.45 4.02-.26-3.83 1.25-143.68 46.53-7.61 2.46 7.86-1.49 148.42-28.22 3.95-.75-3.64 1.71-136.73 64.26-7.25 3.41 7.61-2.48 143.68-46.67 3.83-1.25-3.41 2.16-127.56 80.8-6.76 4.28 7.24-3.4 136.74-64.26 3.65-1.72-3.11 2.57-116.45 96.14-6.2 5.12 6.79-4.31 127.53-80.93 3.41-2.16-2.76 2.93-103.45 110.03-5.51 5.86 6.2-5.13 116.29-96.29 3.11-2.57-2.37 3.26-88.86 122.19-4.68 6.45 5.45-5.81 103.5-110.08 2.76-2.93-1.94 3.53-72.87 132.19-3.87 7.02 4.72-6.49 88.83-122.15 2.37-3.26-1.49 3.75-55.72 140.31-2.96 7.46 3.87-7.04 72.71-132.18 1.94-3.52-1 3.89-37.55 146.1-1.99 7.74 2.94-7.42 55.58-140.34 1.49-3.75-.51 4-19.06 149.74-1.02 7.98 2-7.79 37.54-146.21 1-3.9v163l1-7.92 18.92-149.81.51-3.99.5 3.99 18.92 149.75 1 7.98v-8.04l-.15-150.92-.01-4.04 1.01 3.91 37.55 146.26 1.98 7.73-1-7.92-18.92-149.82-.51-3.98 1.48 3.73 55.59 140.35 2.94 7.43-1.99-7.74-37.55-146.1-1-3.89 1.94 3.52 72.71 132.18 3.87 7.04-2.96-7.46-55.72-140.31-1.48-3.75 2.37 3.26 88.82 122.15 4.72 6.49-3.87-7.02L464.02 459l-1.95-3.54 2.77 2.94 103.34 110.07 5.45 5.81-4.68-6.45-88.72-122.19-2.36-3.26 3.1 2.57 116.31 96.29 6.19 5.13-5.51-5.86-103.44-110.03-2.76-2.93 3.4 2.16 127.54 80.93 6.78 4.31-6.2-5.12-116.45-96.14-3.1-2.57 3.64 1.72 136.74 64.26 7.24 3.4-6.76-4.28-127.56-80.8-3.41-2.16 3.84 1.25 143.67 46.67 7.61 2.48-7.24-3.41-136.74-64.26-3.64-1.71 3.95.75 148.42 28.22 7.86 1.49-7.61-2.46-143.67-46.53-3.84-1.25 4.02.26 150.77 9.45 7.99.5-7.86-1.49L532.75 335l-3.97-.75 4.03-.25 150.77-9.46 7.99-.5-7.99-.5-150.77-9.45-4.03-.26 3.97-.75 148.34-28.2 7.92-1.51-8.05.51-150.71 9.6-4.02.26 3.83-1.25 143.68-46.68 7.61-2.47-7.86 1.5-148.41 28.36-3.96.76 3.65-1.71 136.73-64.26 7.24-3.41-7.61 2.48-143.67 46.68-3.84 1.24 3.41-2.16 127.56-80.8 6.76-4.28-7.24 3.41-136.74 64.26-3.64 1.71 3.1-2.56 116.5-96.18 6.15-5.09-6.74 4.28-127.58 80.81-3.4 2.15 2.76-2.93 103.44-109.88 5.51-5.85-6.19 5.12-116.31 96.15-3.1 2.56 2.36-3.25 88.7-122.02 4.7-6.47-5.48 5.83-103.32 110.05-2.76 2.94 1.95-3.53L536.9 56.88l3.85-7-4.7 6.46-88.84 122.18-2.37 3.26 1.48-3.75 55.71-140.28 2.97-7.49-3.88 7.07-72.7 132.31-1.94 3.53 1-3.9 37.56-146.28 1.98-7.72-2.93 7.41-55.6 140.37-1.48 3.74.51-3.99 18.92-149.67 1-7.91-1.98 7.72-37.55 146.11Z"/></mask><g mask="url(#a)"><rect width="1152.827" height="702.852" x="-785.721" y="-37.992" fill="#000" rx="45"/></g><path fill="#B9FF66" d="m95.71 470.22 45.71 24.9-45.71 25.1-25 45.61-25.01-45.61L0 495.12l45.7-24.9 25.01-45.81 25 45.81Z"/><path fill="#191A23" d="m217.1 243.68 81.67 44.51-81.67 44.86-44.68 81.49-44.68-81.49-81.68-44.86 81.68-44.51 44.68-81.85 44.68 81.85Z"/></svg>