<svg xmlns="http://www.w3.org/2000/svg" width="126.369" height="48" fill="none"><defs><clipPath id="a"><rect width="124.769" height="46.4" fill="#fff" fill-opacity="0" rx="0" transform="translate(.8 .8)"/></clipPath></defs><g style="mix-blend-mode:luminosity"><rect width="124.769" height="46.4" fill="none" rx="0" transform="translate(.8 .8)"/><g clip-path="url(#a)"><path fill="#0D0C22" fill-rule="evenodd" d="M125.57 30.56c-5.26 7.9-13.58 5.6-16.08 3.81-1.06.64-2.93 2.04-5.42 1.88-5.3-.34-7.19-7.05-7.19-7.05.03.02-1.58.49-2.45.48-.02 1.97-1.93 6.67-7.11 6.61-5.82-.07-7-7.74-7-7.74s-.57.71-2.77 1.42c.11-1.51.03 6.09-6.94 6.2-5.51.09-6.99-7.74-6.99-7.74s-.96.88-2.81 1.18c.12-1.53-.07 6.59-7.04 6.56-4.71-.02-6.32-4.82-6.19-5.49.16-.85-1.59 5.61-6.17 5.51-1.89-.05-3.29-1.26-4.17-2.87-1.19 1.19-2.9 2.87-4.83 2.87-3.45 0-4.98-2.56-4.72-9.88.02-.86-.05-1.21-1.02-1.34-.58-.08-1.18-.25-1.82-.33-.2.6-1.92 11.36-7.84 11.56-1.98.07-3.07-1.46-3.96-2.59-1.36 1.6-3.17 2.64-5.74 2.64-4.35 0-7.31-3.12-7.31-6.97 0-3.84 2.96-6.96 7.31-6.96.77 0 .99.1 1.69.28-1.44-11.67 1.97-13.49 4.96-13.49 2.87 0 7.76 5.9.87 20.86 1.53 4.46 4.83 4.21 6.42-4.98.32-1.86-.54-4.38.8-4.74 2.45-.64 2.71 1.29 3.86 1.61 1.22.34 1.93.31 3.1.52 1.99.35 2.77 1.3 2.53 3.41-.29 2.68-.81 6.58.75 7.05 1.12.35 3.17-1.72 3.53-2.84.36-1.13.44-1.52.47-2.35.05-1.77.11-3.07.45-4.4.15-.52.31-.87.97-.89.55-.01 1.54-.16 1.98.15.58.38.51.78.45 1.82-.68 14.8 4.54 7.41 6.1 1.49-.56-6.69-.17-16.59 4.56-16.76 2.46-.08 3.54 1.67 3.67 2.97.33 3.68-1.56 9.78-4.06 13.88-1.42 8.38 6.23 10.03 7.46 3.35-2-.84-4.17-4.26-2.41-5.93.99-.93 5.11.41 5.17 3.34 2.02-.48 2.29-1.49 2.32-1.32-.56-6.69-.04-16.12 4.69-16.29 2.46-.08 3.55 1.67 3.67 2.97.33 3.68-1.56 9.78-4.06 13.88-1.42 8.38 6.24 10.03 7.46 3.35-1.48-.25-4.61-3.89-2.81-5.93.97-1.08 5.07 1.18 5.52 3.44 1.94-.49 2.21-1.47 2.24-1.3-.56-6.69-.05-16.12 4.68-16.29 2.47-.08 3.55 1.66 3.67 2.97.34 3.68-1.55 9.78-4.05 13.88-1.42 8.37 6.23 10.03 7.46 3.35-2.04-.3-4.94-4.14-2.61-6.1.94-.79 4.49 1.25 5.33 3.57 1.15-.04 1.87-.39 2.03-.43-1.85-7.85-.47-17.28 4.61-17.36 2.76-.04 5.45 1.32 4.26 8.8-1.12 7.13-5.17 10.12-5.16 10.16.23.86 2.31 8.01 7.55 4.23-.28-.54-.55-1.09-.7-1.77-.87-3.92.84-8.34 5.47-9.06 2.65-.41 5.15.73 5.55 3.32.65 4.22-3.66 7.28-5.29 7.94-.74-.37 6.64 3.83 11.02-4.58.25-.48.56-.44.95-.19.28.18 1.88 1.51 1.14 2.65ZM10.48 28.25c-.22-.59-.68-1.89-.84-2.46-.89-.68-1.53-.79-2.67-.79-2.54 0-4.04 2.08-4.04 4.32s1.63 4.32 4.17 4.32c2.2 0 3.88-1.32 4.39-3.2-.36-.73-.71-1.4-1.01-2.19ZM13.9 12.2c-1.79 0-2.4 3.77-2.28 6.99.11 2.84 1 5.35 1.47 6.47.12.14.1.05.2.2 3.1-6.02 1.81-13.66.61-13.66Zm37.15.11c-2.3-.23-2.29 8.29-2 10.2 1.2-1.7 3.28-9.74 2-10.2Zm16.84 0c-2.3-.23-2.29 8.29-2 10.2 1.19-1.7 3.28-9.74 2-10.2Zm16.71.12c-2.31-.23-2.29 8.28-2.01 10.19 1.2-1.69 3.28-9.73 2.01-10.19Zm16.44-.61c-3.59.64-2.76 11.25-2.21 13.12 4.23-5.16 4.32-13.32 2.21-13.12Zm13.47 13.27c-.19-.68-1.1-1.04-1.73-.95-1.8.21-3.55 2.21-2.88 5.24.15.67.53 1.29.53 1.27 4.03-2.4 4.38-4.29 4.08-5.56Zm-76.09-5.07c-.51 0-1.02-.14-1.45-.39-.43-.26-.76-.62-.96-1.04a2.11 2.11 0 0 1-.15-1.33c.1-.45.35-.86.72-1.19.36-.32.83-.54 1.33-.63.51-.09 1.03-.04 1.51.13.48.18.88.47 1.17.85.28.38.44.83.44 1.29 0 .3-.07.6-.2.88s-.32.54-.57.75c-.24.21-.52.39-.84.5-.32.12-.66.18-1 .18Z"/></g></g></svg>