<svg xmlns="http://www.w3.org/2000/svg" width="180" height="29" fill="none"><defs><clipPath id="a"><rect width="28.517" height="28" fill="#fff" fill-opacity="0" rx="0" transform="translate(.5 .5)"/></clipPath></defs><g clip-path="url(#a)"><path fill="#FFF" d="M14.75 4.45 29.18.28 24.97 14.5l4.21 14.17-14.43-4.13L.28 28.67 4.53 14.5.28.28l14.47 4.17Z"/></g><path fill="#FFF" fill-rule="evenodd" d="M40.1 24.97V2.41h9.12q2.1 0 3.74.84c1.12.54 1.98 1.31 2.59 2.32q.95 1.48.95 3.58v.41q0 1.95-.85 3.4-.06.11-.13.21-.41.65-.94 1.17-.72.69-1.65 1.15-1.64.81-3.71.81h-5.57v8.67H40.1ZM98.63 6.92c-.66 0-1.22-.2-1.67-.61-.44-.43-.66-.98-.66-1.64 0-.67.22-1.21.66-1.61.45-.43 1.01-.65 1.67-.65.68 0 1.23.22 1.67.65.44.4.66.94.66 1.61 0 .66-.22 1.21-.66 1.64-.44.41-.99.61-1.67.61Zm23.41 0c-.65 0-1.21-.2-1.67-.61q-.24-.23-.39-.52-.27-.49-.27-1.12 0-.67.3-1.16.14-.25.36-.45c.46-.43 1.02-.65 1.67-.65.68 0 1.24.22 1.67.65.44.4.66.94.66 1.61 0 .66-.22 1.21-.66 1.64-.43.41-.99.61-1.67.61Zm-10.66 18.05c-.98 0-1.77-.29-2.36-.87-.57-.58-.85-1.36-.85-2.32v-9.9h-4.46v-2.8h4.46V3.83h3.38v5.25h4.82v2.8h-4.82v9.32c0 .64.3.96.91.96h3.38v2.81h-4.46ZM43.65 13.14h5.21q1.75 0 2.84-.85.08-.06.14-.12c.75-.64 1.12-1.52 1.12-2.64v-.32q0-1.21-.55-2.04-.24-.35-.57-.63-.06-.06-.14-.12-1.09-.85-2.84-.85h-5.21v7.57Zm23.44 12.28c-1.62 0-3.06-.32-4.33-.97a7.433 7.433 0 0 1-2.95-2.83q-1.08-1.84-1.08-4.35v-.49q0-2.51 1.08-4.32a7.433 7.433 0 0 1 2.95-2.83c1.27-.67 2.71-1 4.33-1s3.06.33 4.33 1c1.27.66 2.26 1.61 2.99 2.83.72 1.21 1.08 2.65 1.08 4.32v.49c0 1.67-.36 3.12-1.08 4.35a7.408 7.408 0 0 1-2.99 2.83c-1.27.65-2.71.97-4.33.97Zm19.23 0q-3.08 0-5.12-1.36c-1.35-.9-2.19-2.26-2.49-4.09l3.15-.74c.17.88.47 1.58.88 2.1.42.51.93.88 1.54 1.09q.96.32 2.04.32c1.07 0 1.89-.2 2.46-.61.59-.41.88-.93.88-1.58 0-.64-.27-1.11-.82-1.42-.54-.3-1.35-.54-2.42-.74l-1.12-.19a14.07 14.07 0 0 1-2.98-.84c-.9-.36-1.61-.87-2.14-1.51l-.14-.2q-.64-.92-.64-2.28c0-1.51.57-2.67 1.7-3.48 1.14-.84 2.65-1.26 4.53-1.26 1.81 0 3.3.41 4.46 1.22 1.18.8 1.95 1.88 2.3 3.26l-3.15.87c-.2-.97-.62-1.64-1.25-2.03-.63-.41-1.42-.61-2.36-.61q-1.38 0-2.17.51c-.52.32-.78.79-.78 1.39 0 .64.25 1.11.75 1.42.53.3 1.23.52 2.1.67l1.15.2c1.16.19 2.22.46 3.18.8s1.72.84 2.26 1.48c.57.65.86 1.51.86 2.58 0 1.59-.61 2.83-1.81 3.71-1.2.88-2.82 1.32-4.85 1.32Zm87.02 0c-2.06 0-3.76-.45-5.12-1.36-1.36-.9-2.19-2.26-2.49-4.09l3.15-.74c.17.88.47 1.58.88 2.1.42.51.93.88 1.54 1.09.64.22 1.32.32 2.04.32 1.07 0 1.89-.2 2.46-.61.59-.41.88-.93.88-1.58 0-.64-.27-1.11-.82-1.42-.54-.3-1.35-.54-2.43-.74l-1.11-.19a14.07 14.07 0 0 1-2.98-.84c-.9-.36-1.61-.87-2.14-1.51-.52-.65-.78-1.47-.78-2.48 0-1.51.57-2.67 1.7-3.48 1.14-.84 2.65-1.26 4.53-1.26 1.81 0 3.3.41 4.46 1.22 1.18.8 1.94 1.88 2.3 3.26l-3.15.87c-.2-.97-.62-1.64-1.25-2.03-.63-.41-1.42-.61-2.36-.61-.92 0-1.64.17-2.17.51-.52.32-.78.79-.78 1.39 0 .64.25 1.11.75 1.42.53.3 1.23.52 2.1.67l1.15.2c1.16.19 2.22.46 3.18.8s1.72.84 2.26 1.48c.57.65.86 1.51.86 2.58 0 1.59-.61 2.83-1.81 3.71-1.2.88-2.82 1.32-4.85 1.32Zm-76.42-.45V9.08h3.38v15.89h-3.38Zm23.42 0V9.08h3.37v15.89h-3.37Zm12.13 0-5.45-15.89h3.58l4.29 13.44h.53l4.29-13.44h3.58l-5.44 15.89h-5.38Zm20.3.29c-1.23 0-2.32-.27-3.28-.81a5.75 5.75 0 0 1-2.27-2.29c-.54-.99-.82-2.17-.82-3.54V9.08h3.38v9.31c0 1.38.35 2.4 1.05 3.06.7.65 1.67.97 2.92.97 1.38 0 2.48-.45 3.31-1.35q1.28-1.39 1.28-3.97V9.08h3.38v15.89h-3.31v-2.39h-.53c-.3.65-.85 1.26-1.64 1.84-.79.56-1.94.84-3.47.84Zm-85.68-2.81c1.49 0 2.69-.46 3.61-1.38q.22-.22.4-.46 1.01-1.34 1.01-3.44v-.29c0-1.66-.46-2.94-1.38-3.87q-.39-.4-.85-.69-1.17-.73-2.79-.73c-1.46 0-2.67.48-3.61 1.42q-.16.17-.31.36-1.06 1.33-1.06 3.51v.29q0 2.16 1.04 3.52.16.2.33.38c.94.92 2.15 1.38 3.61 1.38Z"/></svg>