<svg xmlns="http://www.w3.org/2000/svg" width="600.463" height="515" fill="none"><defs><clipPath id="a"><rect width="35" height="35" fill="#fff" fill-opacity="0" rx="0" transform="translate(293.5 427.5)"/></clipPath><clipPath id="b"><rect width="69.326" height="69.326" fill="#fff" fill-opacity="0" rx="0" transform="rotate(45 -324.314 287.393)"/></clipPath></defs><rect width="35" height="35" fill="none" rx="0" transform="translate(293.5 427.5)"/><g clip-path="url(#a)"><path fill="#000" d="m310.99 432.53 17.61-5.19-5.14 17.66 5.14 17.6-17.61-5.14-17.65 5.14 5.19-17.6-5.19-17.66 17.65 5.19Z"/><path stroke="#FFF" d="M328.6 427.34 323.46 445l5.14 17.6-17.61-5.14-17.65 5.14 5.19-17.6-5.19-17.66 17.65 5.19 17.61-5.19Z"/></g><rect width="69.326" height="69.326" fill="none" rx="0" transform="rotate(45 -324.314 287.393)"/><g clip-path="url(#b)"><path fill="#000" d="m124.94 345.5 31.48 17.15-31.48 17.29-17.22 31.41-17.22-31.41-31.47-17.29L90.5 345.5l17.22-31.54 17.22 31.54Z"/><path stroke="#FFF" d="m156.42 362.65-31.48 17.29-17.22 31.41-17.22-31.41-31.47-17.29L90.5 345.5l17.22-31.54 17.22 31.54 31.48 17.15Z"/></g><ellipse stroke="#000" rx="282.63" ry="58.974" transform="rotate(28.881 -332.359 742.126)"/><ellipse stroke="#000" rx="282.63" ry="58.974" transform="rotate(28.881 -413.684 721.18)"/><ellipse stroke="#000" rx="282.63" ry="58.974" transform="rotate(28.881 -495.007 700.24)"/><circle cx="131.5" cy="104.5" r="15.5" fill="#B9FF66"/><circle cx="421" cy="435" r="10" fill="#B9FF66"/><circle cx="81.5" cy="64.5" r="23.5" fill="#000"/><path fill="#000" d="M305.97 383.59c-6.31 2.15-13.51-2.12-16.02-9.52l-39-114.26 22.79-7.8 39.04 114.42c2.51 7.32-.55 15-6.81 17.16Z"/><path fill="#000" d="M302.56 385c-1.84 0-3.72-.44-5.52-1.34-3.64-1.8-6.54-5.17-7.95-9.32l-39-114.26c-.15-.43.08-.94.55-1.1l22.79-7.79c.23-.08.47-.08.67.04.19.11.35.27.42.51l39.04 114.41c2.63 7.76-.66 15.95-7.36 18.26-1.13.39-2.39.59-3.64.59Zm-50.51-124.65 38.72 113.44c1.26 3.72 3.84 6.78 7.05 8.35 2.59 1.25 5.37 1.48 7.87.62 5.8-1.99 8.62-9.2 6.27-16.06l-38.77-113.59-21.14 7.24Z"/><path fill="#B9FF66" d="m269.71 153.38-73.73 52.6-28.7 29.81L156 255.73l-.04.16c-2.23 3.44-.94 11.4 3.25 19.5 4.11 8 9.91 13.56 13.98 13.87l-.12.08 21.66 2.35 40.52-6.46 86.03-30.79 106.93 18.33.74.04c-26.86-5.02-63.11-40.93-89.47-91.74-26.31-50.76-34.69-100.94-23.14-125.7h-.04l-46 96.75-.59 1.26Z"/><path fill="#FFF" fill-rule="evenodd" d="M435.31 131.57c32.73 63.05 37.84 125.3 11.41 139.03-26.42 13.73-74.38-26.26-107.11-89.31C306.88 118.24 301.77 56 328.19 42.27c26.43-13.73 74.39 26.25 107.12 89.3Z"/><path fill="#000" d="M435.1 274.18c-11.51 0-25.37-6.42-40.29-18.92-20.32-17-40.25-43.2-56.11-73.84-24-46.37-33.91-93.93-25.21-121.15 2.89-9.09 7.75-15.44 14.36-18.84 13.16-6.74 31.68-1.02 52.2 16.13 20.32 17 40.25 43.21 56.11 73.84 24.04 46.38 33.95 93.93 25.21 121.16-2.89 9.09-7.75 15.43-14.36 18.84-3.57 1.88-7.56 2.78-11.91 2.78ZM339.84 40.41c-4.04 0-7.8.82-11.16 2.58-6.23 3.18-10.77 9.21-13.51 17.87-8.58 26.83 1.29 73.87 25.1 119.86 32.42 62.55 79.95 102.59 105.99 89.23 6.23-3.17 10.77-9.2 13.51-17.86 8.58-26.83-1.29-73.88-25.1-119.87-28.23-54.44-67.86-91.81-94.83-91.81Z"/><path fill="#000" d="M435.1 274.18c-11.51 0-25.37-6.42-40.29-18.92-20.32-17-40.25-43.2-56.11-73.84-24-46.37-33.91-93.93-25.21-121.15 2.89-9.09 7.75-15.44 14.36-18.84 8.82-4.55 20.33-3.41 33.29 3.25 12.41 6.38 25.84 17.7 38.92 32.71.31.35.27.9-.08 1.21-.35.31-.9.27-1.21-.08-26.55-30.47-53.41-44.11-70.09-35.53-6.23 3.18-10.77 9.21-13.51 17.86-8.58 26.84 1.29 73.88 25.1 119.87 28.19 54.41 67.85 91.82 94.79 91.82 4.04 0 7.79-.83 11.16-2.59 6.23-3.17 10.77-9.2 13.51-17.86 8.58-26.83-1.29-73.88-25.1-119.87-7.09-13.7-15.07-26.59-23.65-38.3-.27-.4-.19-.94.2-1.22.39-.27.94-.19 1.21.2 8.65 11.79 16.64 24.75 23.81 38.54 24 46.34 33.91 93.89 25.17 121.12-2.89 9.09-7.75 15.43-14.36 18.84-3.57 1.88-7.56 2.78-11.91 2.78Z"/><path fill="#B9FF66" fill-rule="evenodd" d="M384.13 158.15c7.58 14.6 8.75 29 2.63 32.18-6.12 3.19-17.22-6.07-24.8-20.66-7.57-14.59-8.75-29-2.63-32.18 6.12-3.18 17.23 6.07 24.8 20.66Z"/><path fill="#B9FF66" d="M384.08 191.84c-6.73 0-16.13-8.69-22.9-21.81-5.64-10.89-7.95-22.1-5.88-28.56.75-2.27 1.96-3.88 3.64-4.74 6.66-3.41 18.06 5.88 25.96 21.11 5.64 10.89 7.95 22.1 5.88 28.56-.75 2.27-1.96 3.88-3.64 4.74-.94.47-1.96.7-3.06.7ZM362 137.71c-.82 0-1.61.16-2.27.51-1.3.66-2.23 1.92-2.82 3.76-1.92 6.03.31 16.76 5.76 27.26 7.2 13.91 18.04 23.27 23.64 20.37 1.3-.67 2.24-1.92 2.82-3.76 1.92-6.07-.35-16.77-5.75-27.26-6.35-12.18-15.43-20.88-21.38-20.88Z"/><path fill="#000" d="M429.15 259.57c-10.1 0-22.24-5.64-35.32-16.57-17.77-14.88-35.24-37.84-49.1-64.63-21.03-40.58-29.68-82.22-22.08-106.08 2.54-7.99 6.81-13.55 12.64-16.57 13.4-6.85 33.09 1.06 54.08 21.7.35.36.35.87 0 1.22s-.86.35-1.22 0c-20.43-20.1-39.42-27.93-52.07-21.39-5.4 2.78-9.36 7.99-11.79 15.55-7.48 23.43 1.14 64.56 21.97 104.78 24.63 47.6 59.28 80.27 82.85 80.27 3.52 0 6.77-.75 9.75-2.24 5.4-2.78 9.36-7.99 11.79-15.55 7.47-23.42-1.14-64.55-21.97-104.78-6.3-12.14-13.35-23.54-20.95-33.84-.27-.4-.19-.94.2-1.22.39-.27.94-.19 1.21.2 7.68 10.42 14.76 21.86 21.11 34.08 21.02 40.58 29.68 82.22 22.08 106.07-2.55 7.99-6.81 13.55-12.65 16.57-3.21 1.61-6.73 2.43-10.53 2.43Z"/><path fill="#000" d="M194.77 292.51h-.08l-21.65-2.35c-.12 0-.24-.04-.36-.12-4.46-.7-10.1-6.34-14.21-14.25-4.38-8.35-5.68-16.5-3.29-20.33l.04-.12 11.28-19.98c.04-.08.08-.11.11-.15l28.71-29.81c.03-.04.07-.08.11-.12l73.54-52.49 46.51-97.81c.12-.2.28-.35.51-.43.24-.08.47-.08.67.04.43.19.62.7.43 1.13-11.79 25.27-2.47 75.49 23.14 124.92 25.64 49.51 61.39 86.18 88.92 91.23.43.08.74.47.7.94-.03.43-.43.74-.86.78l-.74-.04h-.12l-106.74-18.29-85.82 30.71c-.04 0-.12.04-.16.04l-40.53 6.46c-.03.04-.07.04-.11.04Zm-21.11-3.99 21.11 2.27 40.33-6.46 85.98-30.75c.16-.04.27-.08.43-.04l96.09 16.45c-25.96-11.4-56.31-45.05-78.82-88.53-22.36-43.16-32.34-87-26.86-114.69l-41.43 86.96c-.07.12-.15.24-.27.31l-73.65 52.61-28.59 29.65-11.27 19.98c0 .04-.04.08-.04.08-2.04 3.17-.67 11.01 3.29 18.64 3.87 7.49 9.47 13.13 13.31 13.4.16 0 .27.04.39.12Z"/><path fill="#FFF" d="m269.82 153.06 46.48-97.73h.04c-11.55 24.76-3.13 74.94 23.14 125.7 26.36 50.85 62.61 86.76 89.55 91.7l-.74-.04-106.78-18.29-2.47-.43c-12.41-2.2-28.97-18.33-40.84-41.37-12.17-23.62-14.33-47.16-8.92-58.36l.54-1.18Z"/><path fill="#000" d="m429.03 273.59-.78-.04h-.12l-106.78-18.29-2.46-.43c-13.12-2.31-29.76-19.12-41.47-41.8-13.27-25.77-13.94-48.72-8.92-59.14l.58-1.18 46.48-97.69c.12-.2.27-.35.51-.43.23-.08.47-.08.66.04.44.19.63.7.44 1.13-11.79 25.27-2.47 75.49 23.14 124.92 25.64 49.51 61.39 86.17 88.92 91.23.43.08.74.47.7.94-.12.39-.47.74-.9.74ZM311.84 66.77l-41.23 86.69-.59 1.17c-4.97 10.34-3.52 33.45 8.93 57.58 11.47 22.25 27.64 38.7 40.25 40.9l2.47.43 95.89 16.45c-25.96-11.4-56.31-45.05-78.82-88.53-22.36-43.16-32.34-87-26.9-114.69ZM193.59 292.4h-.08L173 290.2c-.12 0-.24-.04-.36-.12-4.46-.7-10.1-6.34-14.21-14.25-4.35-8.39-5.64-16.54-3.25-20.37l.04-.12 11.28-19.98c.23-.43.74-.55 1.17-.31.43.23.55.74.31 1.17l-11.27 20.06c0 .04-.04.08-.04.08-2.04 3.17-.67 11.01 3.29 18.64 3.87 7.49 9.47 13.13 13.31 13.4.12 0 .27.04.35.12l20.05 2.15c.47.04.82.47.74.94-.04.43-.39.79-.82.79Z"/><path fill="#FFF" d="M194.96 291.53c-6.65-.47-15.97-9.91-22.75-22.95-7.16-13.83-8.85-28.13-4.46-33.22l-11.71 20.37-.08.16c-2.23 3.45-.94 11.4 3.25 19.51 4.11 7.99 9.91 13.55 13.98 13.86l-.12.08 21.89 2.19Z"/><path fill="#000" d="M194.96 292.4h-.08c-.15 0-.35-.04-.51-.04L173 290.2c-.12 0-.24-.04-.36-.12-4.46-.7-10.1-6.34-14.21-14.25-4.35-8.39-5.64-16.53-3.25-20.37l.04-.12 10.3-17.94c.39-1.02.9-1.92 1.52-2.66.28-.36.79-.4 1.14-.16.35.27.47.74.24 1.14l-1.45 2.46c-2.31 6.23-.04 18.45 5.91 29.89 6.46 12.5 15.27 21.62 21.57 22.44l.47.04c.47.04.83.47.79.94.04.55-.32.91-.75.91Zm-21.34-3.88 14.96 1.52c-5.76-3.68-12.1-11.28-17.15-21.07-4.9-9.44-7.32-19.23-6.93-26.28l-7.79 13.59c0 .04-.04.08-.04.08-2.04 3.17-.67 11.01 3.29 18.64 3.87 7.49 9.47 13.13 13.31 13.4.12 0 .27.04.35.12Z"/><path fill="#000" d="m233.8 285.38 1.73-.35c-9.32 1.96-24.04-12.14-34.42-32.16-10.61-20.45-12.61-40.85-5.09-46.89l-.98.98-27.21 28.28c-4.47 5.02-2.82 19.39 4.38 33.3 6.93 13.4 16.76 22.95 23.46 22.91l38.13-6.07Z"/><path fill="#000" d="M195.63 292.35c-7.13 0-17.03-9.59-24.2-23.38-7.28-14.1-9.12-28.83-4.27-34.27l26.71-27.74c.47-.62 1.01-1.17 1.6-1.64.35-.28.86-.24 1.18.08.31.35.31.86 0 1.17l-1.53 1.61c-5.44 7.28-2.74 25.93 6.77 44.3 10.26 19.82 24.59 33.41 33.36 31.77l.12-.04c.47-.08.9.19 1.02.66.08.47-.2.91-.67 1.02-.04 0-.08 0-.12.04l-1.6.32h-.04l-38.14 6.07c-.07 0-.15.03-.19.03Zm-4.03-80.53-23.15 24.05c-4.3 4.86-2.35 19.04 4.55 32.32 6.73 13 16.25 22.4 22.63 22.44l33.67-5.36c-9.08-3.22-20.28-15.32-28.94-31.97-8.22-15.86-11.39-32-8.76-41.48ZM359.34 137.47c-6.15 3.14-5.25 17.67 2.58 32.16 13.12 24.25 23.57 21.39 24.79 20.96.04 0 .04.04 0 .04l-22.52 18.14c-6.62-9.29-12.92-19.63-18.71-30.79-5.53-10.7-10.19-21.35-13.87-31.69l27.73-8.82Z"/><path fill="#000" d="M364.19 209.63h-.12a.905.905 0 0 1-.58-.36c-6.78-9.51-13.08-19.93-18.76-30.86-5.44-10.5-10.14-21.19-13.9-31.77-.08-.23-.08-.47.04-.67.12-.19.27-.35.51-.43l27.72-8.81c.43-.12.9.08 1.06.51.16.43 0 .9-.39 1.1-1.34.66-2.31 1.99-2.9 3.95-1.92 6.15.43 17.04 5.87 27.03 12.81 23.66 22.67 20.96 23.73 20.56.39-.15.86.04 1.06.4.19.35.12.86-.2 1.13l-22.59 18.02c-.16.12-.35.2-.55.2Zm-31.44-62.79c3.72 10.22 8.26 20.56 13.51 30.75 5.48 10.57 11.59 20.64 18.13 29.92l19.54-15.74c-4.47-.2-12.89-3.53-22.75-21.74-5.72-10.54-8.07-21.67-6-28.36.28-.87.59-1.61.99-2.32l-23.42 7.49Z"/><path fill="#000" fill-rule="evenodd" d="M490.65 32.28c9.36 17.83 2.43 39.91-15.47 49.31-17.9 9.41-40 2.57-49.36-15.26s-2.43-39.9 15.47-49.31c17.9-9.4 40-2.57 49.36 15.26Z"/><path fill="#FFF" d="M441.56 41.23c1.72-2.35 4.27-3.8 7.17-4.11 2.19-.24 4.23.23 6.15 1.41.97.59 1.84 1.33 2.66 2.23.58-1.06 1.29-2 2.11-2.78 1.61-1.57 3.53-2.47 5.68-2.7 2.9-.32 5.72.54 7.91 2.46 2.15 1.88 3.52 4.63 3.88 7.72.35 3.17-.51 6.23-2.71 9.6-1.95 3.01-4.93 6.15-8.38 9.83-1.17 1.25-2.5 2.66-3.87 4.15-.35.39-.86.67-1.41.71-.55.08-1.06-.08-1.53-.4-1.68-1.17-3.29-2.27-4.7-3.21-4.15-2.82-7.75-5.25-10.33-7.75-2.9-2.78-4.39-5.6-4.74-8.78-.32-3.09.43-6.07 2.11-8.38Z"/><path fill="#B9FF66" fill-rule="evenodd" d="M576.73 36.11c13.11 13.11 13.11 34.37 0 47.48-13.1 13.11-34.35 13.11-47.46 0-13.1-13.11-13.1-34.37 0-47.48 13.11-13.11 34.36-13.11 47.46 0Z"/><path fill="#B9FF66" d="M553 94.27c-18.95 0-34.42-15.44-34.42-34.43 0-18.96 15.43-34.43 34.42-34.43 18.99 0 34.41 15.43 34.41 34.43 0 18.96-15.42 34.43-34.41 34.43Zm0-67.14c-18.01 0-32.7 14.65-32.7 32.71 0 18.02 14.65 32.7 32.7 32.7 18.01 0 32.69-14.65 32.69-32.7 0-18.02-14.64-32.71-32.69-32.71Z"/><path fill="#000" d="M562.08 63.17c-1.88 0-3.52.9-4.62 2.31l-11.32-4.43c0-.16.04-.27.04-.43 0-.27-.04-.55-.08-.82l11.59-5.37c1.06 1.22 2.63 2 4.39 2.04 3.21 0 5.87-2.63 5.87-5.88s-2.62-5.91-5.87-5.91c-3.21 0-5.87 2.62-5.87 5.87 0 .28.04.55.08.83l-11.6 5.36c-1.05-1.21-2.62-2-4.38-2.03-3.21 0-5.87 2.62-5.87 5.87s2.62 5.92 5.87 5.92c1.88 0 3.52-.9 4.62-2.32l11.32 4.43c0 .16-.04.28-.04.43 0 3.25 2.62 5.92 5.87 5.92 3.21 0 5.87-2.63 5.87-5.88-.03-3.25-2.66-5.87-5.87-5.91Z"/><path fill="#000" fill-rule="evenodd" d="M571.15 142.99c10.6 15.29 6.74 36.33-8.63 47-15.36 10.67-36.42 6.93-47.02-8.36-10.6-15.28-6.74-36.32 8.62-46.99 15.37-10.67 36.42-6.93 47.03 8.35Z"/><path fill="#FFF" d="m534.87 178.37-4.93-26.76a1.882 1.882 0 0 1 2.34-2.15l29.18 8.27c1.48.43 1.84 2.35.62 3.29l-24.27 18.48c-1.06.87-2.67.28-2.94-1.13Z"/><path fill="#B9FF66" fill-rule="evenodd" d="M560.73 248.68c9.18 18.87 1.24 41.66-17.74 50.9-18.97 9.24-41.8 1.44-50.98-17.43s-1.24-41.65 17.74-50.9c18.97-9.24 41.8-1.44 50.98 17.43Z"/><path fill="#000" d="M526.18 304.34c-4.08 0-8.23-.62-12.26-2-9.87-3.29-17.85-10.18-22.48-19.5-4.61-9.29-5.32-19.82-1.99-29.69 6.89-20.33 29.05-31.42 49.45-24.64 9.87 3.29 17.86 10.18 22.48 19.5 4.62 9.29 5.32 19.83 1.99 29.7-5.56 16.29-20.87 26.63-37.19 26.63Zm.39-76.07c-15.63 0-30.27 9.87-35.55 25.46-3.18 9.44-2.51 19.51 1.91 28.36 4.43 8.9 12.06 15.51 21.5 18.65 19.5 6.46 40.68-4.11 47.26-23.54 3.17-9.44 2.51-19.51-1.92-28.36-4.42-8.89-12.06-15.51-21.5-18.65-3.87-1.33-7.83-1.92-11.7-1.92Z"/><path fill="#000" d="M545.83 259.26c-.39 9.52-16.48 31.76-20.32 36.97-.39.55-1.21.51-1.57-.07-2.42-3.92-10.45-17.08-14.64-27.74-1.68-4.23-2.74-8.07-2.62-10.77.43-10.81 9.55-19.23 20.36-18.8 10.8.51 19.23 9.6 18.79 20.41Z"/><path fill="#B9FF66" fill-rule="evenodd" d="M532.59 252.14c3.5 3.5 3.5 9.18 0 12.68s-9.18 3.5-12.68 0a8.95 8.95 0 0 1 0-12.68 8.95 8.95 0 0 1 12.68 0Z"/></svg>