<svg xmlns="http://www.w3.org/2000/svg" width="128.627" height="48" fill="none"><defs><clipPath id="a"><rect width="127.626" height="47" fill="#fff" fill-opacity="0" rx="0" transform="translate(.5 .5)"/></clipPath></defs><g style="mix-blend-mode:luminosity"><rect width="127.626" height="47" fill="none" rx="0" transform="translate(.5 .5)"/><g clip-path="url(#a)"><path fill="#33475B" fill-rule="evenodd" d="M13.88 13.1v9.09H4.47V13.1H0v21.69h4.47V26h9.41v8.79h4.47V13.1h-4.47Zm50.2 6.35c0-1.91 1.42-2.51 2.98-2.51 1.26 0 2.92.85 4 1.87l2.78-2.9c-1.39-1.66-4.2-2.81-6.5-2.81-4.6 0-7.93 2.39-7.93 6.35 0 7.34 10.13 5.01 10.13 9.12 0 1.27-1.39 2.39-2.98 2.39-2.51 0-3.32-1.09-4.48-2.24L59 31.56c1.98 2.15 4.41 3.24 7.32 3.24 4.37 0 7.89-2.42 7.89-6.2 0-8.15-10.13-5.62-10.13-9.15ZM48.8 18.6c-2.1 0-3.56.54-4.98 1.77v-7.14h-4.25v13.24c0 4.95 4.05 8.34 8.59 8.34 5.03 0 9.47-3.45 9.47-8.1 0-4.59-4.08-8.11-8.83-8.11Zm74.73 10.3c0 1.47.71 2.43 3.22 2.43.47 0 1.01-.03 1.49-.06l-1.05 3.42c-.56.09-1.13.13-1.7.12-3.62 0-6.26-1.71-6.26-5.1V16.44l4.3-1.71v4.35h3.89v3.3h-3.89v6.52ZM85.45 18.4c5.05 0 9.47 3.45 9.47 8.11 0 4.6-4.08 8.11-8.82 8.11-2.1 0-3.57-.54-4.98-1.77V40h-4.25V26.75c0-4.95 4.04-8.35 8.58-8.35ZM31.58 30.1c.69-.61 1.08-1.45 1.08-2.32v-9.29h4.23v9.29c0 1.87-.84 3.65-2.33 4.97-1.48 1.32-3.5 2.06-5.6 2.06-2.11 0-4.13-.74-5.61-2.06-1.49-1.32-2.33-3.1-2.33-4.97v-9.29h4.24v9.29c0 .87.39 1.71 1.09 2.32.69.61 1.63.96 2.61.96s1.93-.35 2.62-.96Zm58.51-1.26c.53-.71.81-1.53.81-2.38 0-1.13-.51-2.22-1.41-3.02-.9-.8-2.13-1.25-3.41-1.25-.95 0-1.88.25-2.67.72a4.44 4.44 0 0 0-1.78 1.92c-.37.78-.46 1.64-.27 2.47.18.83.64 1.59 1.31 2.18.68.6 1.54 1.01 2.47 1.17.94.17 1.91.08 2.79-.24.88-.32 1.63-.87 2.16-1.57Zm-41.31 2.19c-.95 0-1.89-.25-2.68-.72-.79-.47-1.41-1.14-1.77-1.92-.37-.78-.46-1.64-.28-2.47.19-.83.65-1.59 1.32-2.18.67-.6 1.53-1.01 2.47-1.17.93-.17 1.9-.08 2.78.24.88.32 1.63.87 2.17 1.57.53.71.81 1.53.81 2.38 0 1.13-.51 2.22-1.41 3.02-.91.8-2.13 1.25-3.41 1.25Z"/><path fill="#FF7A59" d="M108.6 18.34V14.6c.56-.23 1.03-.6 1.36-1.06.34-.46.51-.99.52-1.54v-.08c-.01-.77-.35-1.5-.96-2.04-.6-.54-1.43-.84-2.29-.84h-.1c-.86 0-1.69.3-2.29.84-.61.54-.96 1.27-.96 2.04V12c0 .55.18 1.08.51 1.54.34.46.81.83 1.37 1.06v3.74c-1.61.22-3.12.81-4.38 1.71l-11.6-7.99c.08-.27.13-.54.13-.81 0-.65-.21-1.27-.61-1.81-.41-.53-.98-.95-1.65-1.2-.67-.24-1.4-.31-2.12-.18-.71.12-1.36.43-1.87.88a3.15 3.15 0 0 0-1.01 1.67c-.14.63-.07 1.28.21 1.87.28.6.74 1.1 1.35 1.46.6.36 1.31.55 2.03.55.64 0 1.26-.15 1.81-.44l11.4 7.87c-1.02 1.37-1.56 2.99-1.53 4.64.02 1.64.61 3.25 1.68 4.59l-3.47 3.08a3.58 3.58 0 0 0-.86-.13c-.6 0-1.18.16-1.68.46-.49.29-.88.71-1.11 1.19-.23.49-.28 1.03-.17 1.55.12.51.41.99.83 1.36.42.38.95.63 1.54.73.58.11 1.19.05 1.74-.15s1.02-.54 1.35-.98c.33-.44.51-.96.51-1.49-.01-.25-.05-.51-.14-.76l3.43-3.04c1.12.76 2.42 1.28 3.8 1.52 1.39.25 2.81.21 4.18-.11 1.36-.32 2.63-.91 3.69-1.72 1.07-.82 1.91-1.84 2.46-2.99.56-1.15.81-2.4.73-3.65a7.49 7.49 0 0 0-1.15-3.55 8.563 8.563 0 0 0-2.8-2.75c-1.16-.71-2.48-1.18-3.88-1.38Zm-1.42 12.32c-.94 0-1.86-.25-2.64-.71a4.359 4.359 0 0 1-1.75-1.89c-.36-.77-.45-1.62-.27-2.43.19-.82.64-1.57 1.3-2.16.67-.59 1.51-.99 2.43-1.15.93-.16 1.88-.08 2.75.24.87.32 1.61.86 2.13 1.55.52.69.8 1.51.8 2.34 0 1.11-.5 2.19-1.39 2.97-.89.79-2.1 1.24-3.36 1.24Z"/></g></g></svg>