<svg xmlns="http://www.w3.org/2000/svg" width="219.537" height="36" fill="none"><defs><clipPath id="a"><rect width="35" height="35" fill="#fff" fill-opacity="0" rx="0" transform="translate(.5 .5)"/></clipPath></defs><g clip-path="url(#a)"><path fill="#000" d="M17.99 5.53 35.59.34 30.46 18l5.13 17.6-17.6-5.14L.34 35.6 5.53 18 .34.34l17.65 5.19Z"/></g><path fill="#000" fill-rule="evenodd" d="M48.91 31V3h11.12q2.56 0 4.56 1.04 1.26.61 2.17 1.56.56.59.99 1.31 1.16 1.84 1.16 4.44v.52q0 2.49-1.09 4.32l-.1.16q-.54.87-1.25 1.55-.83.79-1.91 1.34-2 1-4.53 1h-6.79V31h-4.33Zm71.38-22.4q-.73 0-1.33-.29-.38-.18-.7-.48c-.54-.53-.81-1.21-.81-2.04 0-.82.27-1.49.81-2q.36-.35.8-.54.56-.25 1.23-.25.82 0 1.44.34.33.18.61.45c.53.51.79 1.18.79 2 0 .83-.26 1.51-.79 2.04q-.24.23-.51.38-.66.39-1.54.39Zm28.56 0q-.73 0-1.33-.29-.38-.18-.71-.48c-.53-.53-.8-1.21-.8-2.04 0-.82.27-1.49.8-2q.37-.35.81-.54.56-.25 1.23-.25c.83 0 1.51.26 2.04.79.53.51.8 1.18.8 2 0 .83-.27 1.51-.8 2.04-.53.51-1.21.77-2.04.77Zm-13 22.4c-1.2 0-2.16-.36-2.88-1.09-.69-.71-1.04-1.67-1.04-2.87V14.75h-5.44v-3.48h5.44V4.75h4.12v6.52h5.88v3.48h-5.88v11.56c0 .81.37 1.21 1.12 1.21h4.12V31h-5.44ZM53.24 16.31h6.35q2.1 0 3.41-1 .12-.1.24-.19.41-.37.69-.81.66-1.02.66-2.48v-.4q0-1.53-.71-2.58-.27-.4-.64-.73-.12-.1-.24-.19-1.31-1.02-3.41-1.02h-6.35v9.4Zm28.59 15.25c-1.97 0-3.73-.4-5.28-1.21-1.52-.82-2.72-2-3.6-3.52-.88-1.52-1.32-3.31-1.32-5.4v-.6c0-2.08.44-3.86 1.32-5.35q.73-1.26 1.75-2.2.83-.77 1.85-1.32c1.55-.83 3.31-1.24 5.28-1.24 1.97 0 3.73.41 5.28 1.24q1.15.61 2.05 1.48.92.88 1.59 2.04c.88 1.49 1.32 3.27 1.32 5.35v.6c0 2.09-.44 3.88-1.32 5.4q-.67 1.16-1.59 2.04-.9.87-2.05 1.48c-1.55.81-3.31 1.21-5.28 1.21Zm23.45 0c-2.51 0-4.59-.56-6.24-1.69-1.65-1.12-2.67-2.81-3.04-5.08l3.84-.92c.21 1.1.57 1.96 1.08 2.61.51.64 1.13 1.09 1.88 1.35.77.27 1.6.41 2.48.41 1.31 0 2.31-.26 3-.76.72-.51 1.08-1.17 1.08-1.96 0-.8-.33-1.39-1-1.77-.67-.37-1.65-.67-2.96-.92l-1.36-.23c-1.33-.25-2.55-.59-3.64-1.04-1.09-.46-1.96-1.08-2.6-1.88q-.07-.1-.14-.19-.82-1.16-.82-2.89c0-1.87.69-3.31 2.08-4.33q2.08-1.55 5.52-1.55 3.32 0 5.44 1.52 1.05.71 1.74 1.68.73 1.04 1.06 2.35l-3.84 1.08c-.24-1.19-.75-2.04-1.52-2.52q-1.16-.75-2.88-.75c-1.12 0-2 .21-2.64.64-.64.4-.96.97-.96 1.71 0 .81.31 1.39.92 1.77.64.37 1.49.65 2.56.84l1.4.23c1.41.25 2.71.58 3.88 1 1.17.43 2.09 1.04 2.76 1.85.69.79 1.04 1.86 1.04 3.19 0 1.98-.73 3.51-2.2 4.6-1.47 1.1-3.44 1.65-5.92 1.65Zm106.13 0c-2.5 0-4.58-.56-6.24-1.69q-.7-.47-1.24-1.08-1.4-1.55-1.8-4l3.84-.92c.21 1.1.58 1.96 1.08 2.61.51.64 1.13 1.09 1.88 1.35.78.27 1.6.41 2.48.41 1.31 0 2.31-.26 3-.76q.66-.47.92-1.1.16-.4.16-.86c0-.8-.33-1.39-1-1.77-.66-.37-1.65-.67-2.96-.92l-1.36-.23c-1.33-.25-2.54-.59-3.64-1.04-1.09-.46-1.96-1.08-2.6-1.88-.64-.81-.96-1.83-.96-3.08 0-1.87.7-3.31 2.08-4.33 1.39-1.03 3.23-1.55 5.52-1.55 2.22 0 4.03.5 5.44 1.52q1.05.71 1.74 1.68.73 1.04 1.06 2.35l-3.84 1.08c-.24-1.19-.74-2.04-1.52-2.52-.77-.5-1.73-.75-2.88-.75-1.12 0-2 .21-2.64.64-.64.4-.96.97-.96 1.71 0 .81.31 1.39.92 1.77.64.37 1.5.65 2.56.84l1.4.23c1.42.25 2.71.58 3.88 1 1.18.43 2.1 1.04 2.76 1.85.69.79 1.04 1.86 1.04 3.19 0 1.98-.73 3.51-2.2 4.6-1.46 1.1-3.44 1.65-5.92 1.65Zm-93.2-.56V11.27h4.13V31h-4.13Zm28.56 0V11.27h4.12V31h-4.12Zm14.79 0-6.64-19.73h4.36l5.24 16.69h.64l5.24-16.69h4.37L168.12 31h-6.56Zm24.76.35c-1.49 0-2.82-.33-4-1-1.17-.66-2.09-1.61-2.76-2.83-.66-1.23-1-2.7-1-4.4V11.27h4.12v11.56q0 2.56 1.28 3.8v.01c.86.79 2.04 1.19 3.56 1.19q1.66 0 2.89-.73.63-.37 1.15-.94c1.04-1.15 1.56-2.79 1.56-4.92v-9.97h4.12V31h-4.04v-2.96h-.64c-.37.79-1.04 1.56-2 2.27-.96.7-2.37 1.04-4.24 1.04ZM81.83 27.87q1.9 0 3.3-.84.6-.36 1.1-.87.23-.24.43-.5 1.29-1.68 1.29-4.35v-.35c0-2.06-.56-3.66-1.68-4.8-1.12-1.18-2.6-1.77-4.44-1.77-1.79 0-3.25.59-4.4 1.77q-.17.17-.33.37-1.35 1.66-1.35 4.43v.35q0 2.75 1.33 4.44.17.21.35.41c1.15 1.14 2.61 1.71 4.4 1.71Z"/></svg>