<svg xmlns="http://www.w3.org/2000/svg" width="125.24" height="48" fill="none"><defs><clipPath id="a"><rect width="124.241" height="47" fill="#fff" fill-opacity="0" rx="0" transform="translate(.5 .5)"/></clipPath></defs><g style="mix-blend-mode:luminosity"><rect width="124.241" height="47" fill="none" rx="0" transform="translate(.5 .5)"/><g clip-path="url(#a)"><path fill="#D81F26" d="M17.22 38.06c-1.89.29-3.81.38-5.79.62L5.38 22.97v16.38c-1.88.18-3.6.41-5.38.65V10h5.02l6.88 17.02V10h5.32v28.06Zm10.41-17.08c2.05 0 5.19-.09 7.07-.09v4.69c-2.34 0-5.09 0-7.07.09v6.97c3.11-.17 6.21-.41 9.35-.5v4.51l-14.64 1.03V10h14.64v4.68h-9.35v6.3Zm29.02-6.3h-5.49v21.57c-1.78 0-3.57 0-5.28.05V14.68h-5.49V10h16.26v4.68Zm8.6 5.98h7.24v4.69h-7.24v10.63h-5.19V10h14.77v4.68h-9.58v5.98Zm18.18 11.22c3.01.06 6.05.26 8.99.41v4.63c-4.73-.26-9.46-.53-14.28-.62V10h5.29v21.88Zm13.45 5.36c1.69.09 3.47.18 5.19.35V10h-5.19v27.24ZM125.24 10l-6.71 14.26L125.24 40c-1.98-.24-3.96-.56-5.95-.85l-3.8-8.68-3.87 7.97c-1.91-.29-3.76-.38-5.68-.61l6.81-13.74L106.6 10h5.68l3.48 7.88 3.7-7.88h5.78Z"/></g></g></svg>