<svg xmlns="http://www.w3.org/2000/svg" width="145.551" height="48" fill="none"><defs><clipPath id="a"><rect width="144.551" height="47" fill="#fff" fill-opacity="0" rx="0" transform="translate(.5 .5)"/></clipPath></defs><g style="mix-blend-mode:luminosity"><rect width="144.551" height="47" fill="none" rx="0" transform="translate(.5 .5)"/><g clip-path="url(#a)"><path fill="#000" fill-rule="evenodd" d="M23.96 6.08 2.35 7.47C.62 7.61 0 8.59 0 9.81v20.9c0 .93.38 1.74 1.29 2.81l5.1 5.84c.83.94 1.58 1.14 3.18 1.07l25.08-1.35c2.12-.13 2.72-1 2.72-2.47V13.1c0-.8-.39-1-1.53-1.74l-6.88-4.28c-1.66-1.07-2.36-1.21-5-1Zm-13.87 6.63c-2.03.12-2.49.15-3.65-.68L3.49 9.97c-.31-.25-.16-.6.59-.67l20.76-1.35c1.74-.13 2.67.42 3.34.87l3.57 2.27c.16.05.55.46.08.46l-21.46 1.14c-.09.01-.19.01-.28.02Zm96.41.98c0 1.21-1.13 2.2-2.51 2.2s-2.51-.99-2.51-2.2c0-1.25 1.13-2.24 2.51-2.24s2.51.99 2.51 2.24Zm-55.8 6.52v14.56h-4.18V13.4h3.76l11.95 14.51h.29V13.4h4.18v21.37h-3.76L50.99 20.21h-.29ZM7.73 36.4V16.45c0-.87.31-1.29 1.22-1.36l24.64-1.28c.83-.07 1.22.42 1.22 1.28v19.83c0 .87-.16 1.6-1.53 1.67L9.7 37.8c-1.37.07-1.97-.32-1.97-1.4Zm83.51-17.72v-4.07h4.18v4.07h3.97v2.93h-3.97v7.95c0 1.62.79 2.31 2.55 2.31.58 0 .92-.03 1.42-.07v2.86c-.63.11-1.42.18-2.22.18-4.26 0-5.93-1.24-5.93-4.4v-8.83h-2.93v-2.93h2.93Zm-60.91.12c.67-.07.83-.68.67-1.28l-5.2.25c-.75.07-1.37.62-1.22 1.35l1.97.21v9.22l-7.74-10.43-5.61.34c-1.07.07-1.45.94-1.3 1.53l1.89.14v13.18l-1.37.35c-.52.14-.67.8-.52 1.07l5.23-.27c1.89 0 1.89-1.21 1.89-1.21l-2.36-.46v-9.98l7.43 10.32c.91 1.01 1.22 1.35 2.43 1.35.78 0 1.69-.27 2.67-.73V19.01l1.14-.21Zm57.1 7.87c0 5.28-3.38 8.43-8.9 8.43-5.52 0-8.86-3.15-8.9-8.43 0-5.25 3.43-8.43 8.9-8.43 5.52 0 8.9 3.18 8.9 8.43Zm39 0c0 5.28-3.38 8.43-8.9 8.43-5.56 0-8.9-3.15-8.9-8.43 0-5.25 3.42-8.43 8.9-8.43 5.52 0 8.9 3.18 8.9 8.43Zm6.65 8.1h-4.18s0-16.21-.04-16.21h4.05v2.61h.29c.88-1.84 2.72-2.93 5.48-2.93 4.09 0 6.35 2.16 6.35 6.04v10.49h-4.18v-9.61c0-2.45-1.17-3.7-3.72-3.7-2.46 0-4.05 1.5-4.05 3.89v9.42Zm-27 0h-4.18V18.56h4.18v16.21Zm-32.15-8.1c0 3.41 1.68 5.35 4.6 5.35 2.93 0 4.6-1.94 4.6-5.35 0-3.38-1.67-5.36-4.6-5.36-2.92 0-4.6 1.98-4.6 5.36Zm39 0c0 3.41 1.67 5.35 4.6 5.35 2.88 0 4.56-1.94 4.6-5.35 0-3.38-1.72-5.36-4.6-5.36-2.93 0-4.6 1.98-4.6 5.36Z"/></g></g></svg>