<svg xmlns="http://www.w3.org/2000/svg" width="30" height="30" fill="none"><circle cx="15" cy="15" r="15" fill="#FFF"/><path fill="#000" d="M21.99 11.49c.69-.52 1.31-1.14 1.79-1.87-.62.28-1.34.49-2.06.56.75-.45 1.3-1.14 1.58-2-.69.41-1.48.72-2.27.89a3.632 3.632 0 0 0-2.66-1.13c-2 0-3.62 1.62-3.62 3.62 0 .27.04.55.11.82-3-.17-5.69-1.62-7.48-3.79-.31.52-.48 1.14-.48 1.83 0 1.24.61 2.34 1.61 3-.58-.04-1.17-.18-1.65-.45V13c0 1.76 1.24 3.21 2.89 3.55-.27.07-.61.14-.92.14-.25 0-.45-.03-.69-.07.44 1.45 1.79 2.48 3.37 2.52a7.3 7.3 0 0 1-4.48 1.55c-.31 0-.58-.03-.86-.07 1.59 1.03 3.48 1.62 5.55 1.62 6.65 0 10.27-5.48 10.27-10.27v-.48Z"/></svg>