<svg xmlns="http://www.w3.org/2000/svg" width="110.574" height="48" fill="none"><defs><clipPath id="a"><rect width="109.573" height="47" fill="#fff" fill-opacity="0" rx="0" transform="translate(.5 .5)"/></clipPath></defs><g style="mix-blend-mode:luminosity"><rect width="109.573" height="47" fill="none" rx="0" transform="translate(.5 .5)"/><g clip-path="url(#a)"><path fill="#2D8CFF" fill-rule="evenodd" d="M89.93 20.59c.42.65.56 1.38.6 2.21l.06 1.1v7.7l.07 1.1c.12 1.8 1.62 3.13 3.66 3.24l1.24.06V23.9l.06-1.1c.05-.82.19-1.57.62-2.22a4.69 4.69 0 0 1 1.81-1.6c.76-.39 1.61-.59 2.48-.59a5.5 5.5 0 0 1 2.48.6c.76.38 1.38.94 1.81 1.61.43.64.56 1.39.61 2.2l.06 1.1v7.7l.06 1.1c.13 1.81 1.62 3.14 3.67 3.24l1.23.06V22.8c0-2.34-1.04-4.57-2.9-6.22-1.87-1.65-4.39-2.58-7.02-2.58-1.41 0-2.8.26-4.09.78a9.852 9.852 0 0 0-3.36 2.2 9.852 9.852 0 0 0-3.36-2.2c-1.29-.52-2.68-.78-4.09-.78-2.06 0-3.97.55-5.56 1.51-.96-.96-3.13-1.51-4.37-1.51v22l1.24-.06c2.08-.12 3.58-1.42 3.66-3.24l.07-1.1v-7.7l.06-1.1c.05-.83.18-1.56.6-2.21.44-.67 1.07-1.22 1.82-1.61.76-.38 1.61-.58 2.48-.58.87 0 1.73.2 2.48.58.76.39 1.38.94 1.82 1.61ZM4.96 35.94 6.2 36h18.62l-.07-1.1c-.16-1.81-1.61-3.13-3.66-3.25l-1.24-.05H8.68l14.9-13.21-.07-1.09c-.09-1.83-1.6-3.15-3.66-3.25L18.61 14H0l.06 1.1c.16 1.79 1.62 3.14 3.66 3.24l1.24.06h11.17L1.24 31.6l.06 1.1c.12 1.81 1.6 3.12 3.66 3.24Zm65.87-18.72c1.15 1.02 2.07 2.23 2.69 3.57.62 1.33.94 2.76.94 4.2 0 1.45-.32 2.88-.94 4.21-.62 1.34-1.54 2.55-2.69 3.57-2.33 2.06-5.49 3.22-8.78 3.22-3.29 0-6.45-1.16-8.78-3.22-4.85-4.29-4.85-11.26 0-15.55 1.15-1.02 2.52-1.83 4.03-2.39 1.5-.55 3.11-.83 4.74-.83 1.63-.01 3.25.28 4.76.83 1.51.55 2.87 1.36 4.03 2.39Zm-3.51 3.11c1.39 1.24 2.18 2.92 2.18 4.67s-.79 3.43-2.18 4.67c-1.4 1.23-3.3 1.93-5.27 1.93-1.97 0-3.87-.7-5.27-1.93-1.39-1.24-2.18-2.92-2.18-4.67s.79-3.43 2.18-4.67c1.4-1.24 3.3-1.93 5.27-1.93 1.97 0 3.87.69 5.27 1.93ZM36 14c1.62 0 3.24.28 4.74.83 1.51.56 2.87 1.37 4.02 2.39 4.85 4.29 4.85 11.26 0 15.55-2.32 2.06-5.48 3.22-8.77 3.22-3.3 0-6.45-1.16-8.78-3.22-4.85-4.29-4.85-11.26 0-15.55 1.15-1.02 2.52-1.83 4.02-2.39 1.51-.55 3.12-.83 4.75-.83H36Zm5.25 6.33c1.4 1.24 2.18 2.92 2.18 4.67s-.78 3.43-2.18 4.66c-1.39 1.24-3.29 1.94-5.26 1.94-1.98 0-3.87-.7-5.27-1.94-1.39-1.23-2.18-2.91-2.18-4.66s.79-3.43 2.18-4.67c1.4-1.24 3.29-1.93 5.27-1.93 1.97 0 3.87.69 5.26 1.93Z"/></g></g></svg>